<svg xmlns="http://www.w3.org/2000/svg" xmlns:xlink="http://www.w3.org/1999/xlink" width="64" zoomAndPan="magnify" viewBox="0 0 48 48" height="64" preserveAspectRatio="xMidYMid meet" version="1.0"><defs><clipPath id="ac5c4b5a7d"><path d="M 4.421875 0 L 43.359375 0 L 43.359375 47 L 4.421875 47 Z M 4.421875 0 " clip-rule="nonzero"/></clipPath></defs><g clip-path="url(#ac5c4b5a7d)"><path fill="#00c951" d="M 22.945312 0.015625 L 24.960938 0.015625 C 25.023438 0.046875 25.089844 0.0742188 25.160156 0.0898438 C 27.480469 0.253906 29.597656 0.992188 31.519531 2.308594 C 32.46875 2.925781 33.324219 3.648438 34.089844 4.484375 C 34.855469 5.316406 35.503906 6.234375 36.035156 7.230469 C 36.570312 8.230469 36.96875 9.277344 37.238281 10.378906 C 37.503906 11.476562 37.632812 12.59375 37.617188 13.722656 C 37.636719 13.980469 37.605469 14.230469 37.515625 14.472656 C 37.429688 14.714844 37.296875 14.929688 37.117188 15.113281 C 36.9375 15.296875 36.730469 15.4375 36.492188 15.535156 C 36.25 15.628906 36.003906 15.667969 35.746094 15.65625 C 35.046875 15.683594 34.339844 15.679688 33.640625 15.65625 C 33.277344 15.671875 32.941406 15.582031 32.636719 15.386719 C 32.332031 15.191406 32.109375 14.921875 31.972656 14.585938 C 31.835938 14.210938 31.769531 13.824219 31.765625 13.425781 C 31.753906 13.117188 31.722656 12.8125 31.675781 12.507812 C 31.625 12.203125 31.558594 11.90625 31.476562 11.609375 C 31.390625 11.3125 31.289062 11.023438 31.171875 10.738281 C 31.054688 10.453125 30.921875 10.175781 30.769531 9.90625 C 30.617188 9.640625 30.453125 9.378906 30.273438 9.128906 C 30.089844 8.882812 29.898438 8.644531 29.6875 8.417969 C 29.480469 8.191406 29.257812 7.976562 29.023438 7.777344 C 28.789062 7.578125 28.542969 7.390625 28.289062 7.21875 C 28.035156 7.046875 27.769531 6.890625 27.496094 6.75 C 27.21875 6.609375 26.9375 6.488281 26.648438 6.378906 C 26.363281 6.273438 26.066406 6.183594 25.769531 6.109375 C 25.46875 6.035156 25.167969 5.980469 24.859375 5.945312 C 24.554688 5.90625 24.25 5.886719 23.941406 5.886719 C 23.632812 5.886719 23.324219 5.902344 23.019531 5.9375 C 22.714844 5.972656 22.410156 6.023438 22.109375 6.09375 C 21.8125 6.164062 21.515625 6.253906 21.226562 6.359375 C 20.507812 6.65625 19.84375 7.046875 19.238281 7.535156 C 18.628906 8.023438 18.101562 8.585938 17.652344 9.222656 C 17.207031 9.859375 16.859375 10.546875 16.605469 11.285156 C 16.355469 12.023438 16.210938 12.78125 16.175781 13.558594 C 16.132812 15.464844 16.160156 17.375 16.15625 19.285156 C 16.164062 19.382812 16.183594 19.476562 16.207031 19.570312 L 16.859375 19.570312 C 24.320312 19.570312 31.785156 19.570312 39.246094 19.570312 C 39.625 19.5625 40.003906 19.589844 40.378906 19.660156 C 40.824219 19.753906 41.242188 19.917969 41.628906 20.15625 C 42.015625 20.394531 42.351562 20.691406 42.632812 21.046875 C 42.917969 21.402344 43.128906 21.796875 43.277344 22.226562 C 43.421875 22.65625 43.488281 23.097656 43.480469 23.554688 C 43.488281 28.074219 43.488281 32.59375 43.480469 37.109375 C 43.488281 37.476562 43.472656 37.84375 43.4375 38.207031 C 43.378906 38.804688 43.269531 39.390625 43.101562 39.964844 C 42.933594 40.539062 42.714844 41.09375 42.445312 41.628906 C 42.175781 42.160156 41.859375 42.664062 41.492188 43.140625 C 41.128906 43.617188 40.726562 44.054688 40.277344 44.453125 C 39.832031 44.851562 39.355469 45.207031 38.84375 45.519531 C 38.332031 45.828125 37.796875 46.089844 37.234375 46.300781 C 36.675781 46.511719 36.101562 46.667969 35.511719 46.773438 C 34.921875 46.875 34.328125 46.925781 33.730469 46.917969 C 27.214844 46.917969 20.695312 46.929688 14.179688 46.90625 C 13.371094 46.90625 12.570312 46.808594 11.785156 46.617188 C 11.28125 46.503906 10.792969 46.34375 10.320312 46.148438 C 9.84375 45.953125 9.386719 45.71875 8.949219 45.449219 C 8.511719 45.179688 8.101562 44.875 7.710938 44.535156 C 7.324219 44.199219 6.964844 43.832031 6.636719 43.433594 C 6.3125 43.039062 6.015625 42.617188 5.757812 42.175781 C 5.496094 41.730469 5.277344 41.269531 5.089844 40.789062 C 4.90625 40.308594 4.761719 39.816406 4.660156 39.3125 C 4.554688 38.808594 4.492188 38.300781 4.46875 37.785156 C 4.394531 32.980469 4.425781 28.167969 4.449219 23.359375 C 4.449219 22.9375 4.523438 22.523438 4.664062 22.125 C 4.808594 21.722656 5.011719 21.359375 5.277344 21.027344 C 5.542969 20.695312 5.855469 20.417969 6.214844 20.195312 C 6.574219 19.96875 6.964844 19.8125 7.378906 19.71875 C 8.144531 19.609375 8.917969 19.558594 9.695312 19.570312 C 9.886719 19.558594 10.074219 19.546875 10.292969 19.53125 L 10.292969 18.980469 C 10.292969 17.238281 10.289062 15.5 10.292969 13.761719 C 10.296875 13 10.363281 12.242188 10.492188 11.492188 C 10.621094 10.742188 10.808594 10.003906 11.058594 9.285156 C 11.3125 8.566406 11.617188 7.871094 11.984375 7.203125 C 12.351562 6.535156 12.769531 5.902344 13.238281 5.304688 C 13.710938 4.703125 14.226562 4.148438 14.789062 3.636719 C 15.351562 3.121094 15.953125 2.660156 16.59375 2.246094 C 17.234375 1.832031 17.902344 1.472656 18.601562 1.171875 C 19.300781 0.871094 20.023438 0.628906 20.761719 0.445312 C 21.480469 0.265625 22.21875 0.15625 22.945312 0.015625 Z M 23.960938 27.390625 C 23.542969 27.394531 23.132812 27.464844 22.738281 27.597656 C 22.339844 27.730469 21.976562 27.921875 21.640625 28.171875 C 21.304688 28.421875 21.015625 28.714844 20.773438 29.054688 C 20.53125 29.398438 20.347656 29.765625 20.222656 30.164062 C 20.105469 30.558594 20.050781 30.960938 20.0625 31.371094 C 20.074219 31.785156 20.148438 32.183594 20.285156 32.570312 C 20.421875 32.957031 20.617188 33.3125 20.867188 33.640625 C 21.117188 33.964844 21.410156 34.242188 21.75 34.476562 C 21.898438 34.59375 21.984375 34.75 22.003906 34.941406 C 22.03125 35.640625 22.003906 36.34375 22.015625 37.046875 C 22.019531 37.304688 22.070312 37.558594 22.167969 37.800781 C 22.261719 38.042969 22.402344 38.261719 22.578125 38.453125 C 22.757812 38.640625 22.964844 38.792969 23.199219 38.90625 C 23.433594 39.023438 23.679688 39.089844 23.941406 39.109375 C 24.207031 39.09375 24.457031 39.03125 24.699219 38.917969 C 24.9375 38.804688 25.148438 38.652344 25.332031 38.460938 C 25.511719 38.269531 25.652344 38.050781 25.75 37.804688 C 25.851562 37.558594 25.898438 37.304688 25.902344 37.039062 C 25.914062 36.34375 25.890625 35.636719 25.914062 34.9375 C 25.929688 34.757812 26.003906 34.613281 26.136719 34.5 C 26.488281 34.269531 26.789062 33.988281 27.046875 33.65625 C 27.304688 33.328125 27.503906 32.964844 27.644531 32.570312 C 27.785156 32.175781 27.855469 31.769531 27.863281 31.351562 C 27.871094 30.933594 27.8125 30.523438 27.6875 30.125 C 27.558594 29.730469 27.371094 29.367188 27.128906 29.03125 C 26.882812 28.695312 26.59375 28.40625 26.261719 28.160156 C 25.925781 27.914062 25.5625 27.726562 25.171875 27.59375 C 24.777344 27.464844 24.375 27.394531 23.960938 27.390625 Z M 23.960938 27.390625 " fill-opacity="1" fill-rule="nonzero"/></g></svg>