<svg xmlns="http://www.w3.org/2000/svg" xmlns:xlink="http://www.w3.org/1999/xlink" width="64" zoomAndPan="magnify" viewBox="0 0 48 48" height="64" preserveAspectRatio="xMidYMid meet" version="1.0"><defs><clipPath id="7b413ca906"><path d="M 0.488281 0 L 47.507812 0 L 47.507812 47.019531 L 0.488281 47.019531 Z M 0.488281 0 " clip-rule="nonzero"/></clipPath><clipPath id="6100bca1f8"><path d="M 24 0 C 11.015625 0 0.488281 10.527344 0.488281 23.511719 C 0.488281 36.496094 11.015625 47.019531 24 47.019531 C 36.984375 47.019531 47.511719 36.496094 47.511719 23.511719 C 47.511719 10.527344 36.984375 0 24 0 Z M 24 0 " clip-rule="nonzero"/></clipPath><clipPath id="e1008d74e2"><path d="M 11.6875 8.722656 L 36.664062 8.722656 L 36.664062 38.109375 L 11.6875 38.109375 Z M 11.6875 8.722656 " clip-rule="nonzero"/></clipPath></defs><g clip-path="url(#7b413ca906)"><g clip-path="url(#6100bca1f8)"><path fill="#000000" d="M 0.488281 0 L 47.511719 0 L 47.511719 47.019531 L 0.488281 47.019531 Z M 0.488281 0 " fill-opacity="1" fill-rule="nonzero"/></g></g><g clip-path="url(#e1008d74e2)"><path fill="#00c951" d="M 23.339844 8.730469 L 24.605469 8.730469 C 24.644531 8.75 24.6875 8.765625 24.730469 8.777344 C 26.191406 8.878906 27.523438 9.34375 28.730469 10.171875 C 29.328125 10.558594 29.867188 11.015625 30.347656 11.539062 C 30.828125 12.066406 31.238281 12.640625 31.574219 13.269531 C 31.90625 13.898438 32.160156 14.554688 32.328125 15.246094 C 32.496094 15.9375 32.574219 16.640625 32.566406 17.351562 C 32.578125 17.515625 32.558594 17.671875 32.503906 17.824219 C 32.449219 17.976562 32.367188 18.109375 32.253906 18.226562 C 32.140625 18.34375 32.007812 18.429688 31.859375 18.492188 C 31.707031 18.550781 31.550781 18.578125 31.390625 18.570312 C 30.949219 18.585938 30.507812 18.582031 30.066406 18.570312 C 29.835938 18.578125 29.625 18.523438 29.433594 18.398438 C 29.242188 18.273438 29.101562 18.105469 29.015625 17.894531 C 28.929688 17.660156 28.886719 17.417969 28.886719 17.164062 C 28.871094 16.777344 28.808594 16.394531 28.703125 16.023438 C 28.597656 15.648438 28.449219 15.292969 28.257812 14.953125 C 28.070312 14.613281 27.84375 14.300781 27.578125 14.015625 C 27.316406 13.730469 27.023438 13.476562 26.699219 13.261719 C 26.375 13.042969 26.03125 12.867188 25.667969 12.734375 C 25.304688 12.597656 24.929688 12.507812 24.542969 12.460938 C 24.15625 12.410156 23.769531 12.410156 23.382812 12.453125 C 23 12.5 22.621094 12.585938 22.257812 12.71875 C 21.804688 12.90625 21.386719 13.152344 21.003906 13.460938 C 20.621094 13.765625 20.289062 14.121094 20.007812 14.523438 C 19.726562 14.921875 19.507812 15.355469 19.351562 15.820312 C 19.191406 16.28125 19.101562 16.757812 19.082031 17.25 C 19.050781 18.449219 19.070312 19.648438 19.066406 20.851562 C 19.074219 20.910156 19.082031 20.972656 19.097656 21.03125 L 19.507812 21.03125 C 24.203125 21.03125 28.898438 21.03125 33.589844 21.03125 C 33.832031 21.023438 34.070312 21.042969 34.304688 21.085938 C 34.585938 21.144531 34.847656 21.25 35.089844 21.398438 C 35.332031 21.546875 35.542969 21.734375 35.722656 21.960938 C 35.898438 22.183594 36.035156 22.429688 36.125 22.699219 C 36.21875 22.972656 36.261719 23.25 36.253906 23.535156 C 36.257812 26.378906 36.257812 29.222656 36.253906 32.0625 C 36.257812 32.292969 36.25 32.523438 36.230469 32.753906 C 36.191406 33.128906 36.121094 33.496094 36.015625 33.859375 C 35.910156 34.21875 35.773438 34.570312 35.605469 34.90625 C 35.433594 35.242188 35.234375 35.558594 35.003906 35.855469 C 34.777344 36.15625 34.523438 36.429688 34.242188 36.683594 C 33.960938 36.933594 33.660156 37.15625 33.339844 37.351562 C 33.015625 37.546875 32.679688 37.710938 32.328125 37.84375 C 31.976562 37.976562 31.613281 38.078125 31.242188 38.140625 C 30.871094 38.207031 30.5 38.238281 30.121094 38.234375 C 26.023438 38.234375 21.921875 38.238281 17.824219 38.226562 C 17.316406 38.222656 16.8125 38.164062 16.316406 38.042969 C 15.683594 37.898438 15.089844 37.652344 14.535156 37.308594 C 13.980469 36.964844 13.496094 36.542969 13.082031 36.042969 C 12.664062 35.539062 12.339844 34.984375 12.105469 34.378906 C 11.875 33.769531 11.742188 33.140625 11.714844 32.488281 C 11.667969 29.464844 11.691406 26.4375 11.703125 23.414062 C 11.703125 23.148438 11.75 22.886719 11.839844 22.636719 C 11.929688 22.386719 12.054688 22.15625 12.222656 21.945312 C 12.390625 21.738281 12.585938 21.5625 12.8125 21.421875 C 13.039062 21.28125 13.285156 21.183594 13.542969 21.125 C 14.027344 21.054688 14.515625 21.023438 15.003906 21.03125 C 15.121094 21.023438 15.242188 21.015625 15.378906 21.003906 L 15.378906 20.660156 C 15.378906 19.5625 15.375 18.46875 15.378906 17.375 C 15.382812 16.898438 15.421875 16.421875 15.503906 15.949219 C 15.585938 15.476562 15.703125 15.015625 15.863281 14.5625 C 16.019531 14.109375 16.214844 13.671875 16.441406 13.25 C 16.671875 12.832031 16.9375 12.433594 17.230469 12.054688 C 17.527344 11.679688 17.855469 11.328125 18.207031 11.007812 C 18.5625 10.683594 18.941406 10.390625 19.34375 10.132812 C 19.746094 9.871094 20.167969 9.648438 20.605469 9.457031 C 21.046875 9.265625 21.5 9.113281 21.964844 9 C 22.417969 8.886719 22.878906 8.816406 23.339844 8.730469 Z M 23.976562 25.949219 C 23.4375 25.953125 22.949219 26.117188 22.515625 26.441406 C 22.082031 26.761719 21.785156 27.179688 21.625 27.695312 C 21.472656 28.203125 21.488281 28.707031 21.664062 29.207031 C 21.839844 29.707031 22.148438 30.105469 22.585938 30.40625 C 22.679688 30.480469 22.734375 30.578125 22.746094 30.699219 C 22.761719 31.136719 22.746094 31.582031 22.753906 32.023438 C 22.753906 32.1875 22.785156 32.34375 22.847656 32.496094 C 22.910156 32.652344 22.996094 32.785156 23.105469 32.90625 C 23.21875 33.027344 23.347656 33.121094 23.496094 33.195312 C 23.644531 33.265625 23.800781 33.308594 23.964844 33.320312 C 24.132812 33.3125 24.289062 33.269531 24.441406 33.199219 C 24.589844 33.128906 24.722656 33.035156 24.839844 32.914062 C 24.953125 32.792969 25.039062 32.65625 25.101562 32.5 C 25.164062 32.347656 25.195312 32.183594 25.199219 32.019531 C 25.203125 31.582031 25.191406 31.136719 25.207031 30.695312 C 25.214844 30.585938 25.261719 30.492188 25.347656 30.421875 C 25.566406 30.277344 25.757812 30.097656 25.917969 29.890625 C 26.082031 29.683594 26.207031 29.457031 26.292969 29.207031 C 26.382812 28.960938 26.425781 28.703125 26.433594 28.441406 C 26.4375 28.175781 26.398438 27.921875 26.320312 27.667969 C 26.152344 27.160156 25.855469 26.75 25.421875 26.433594 C 24.992188 26.117188 24.511719 25.957031 23.976562 25.949219 Z M 23.976562 25.949219 " fill-opacity="1" fill-rule="nonzero"/></g></svg>